HIERARCHY
ROOT Hips
{
	OFFSET 0.000000 0.000000 0.000000
	CHANNELS 6 Xposition Yposition Zposition Yrotation Xrotation Zrotation
	JOINT Spine1
	{
		OFFSET 0.000000 -0.000001 5.553894
		CHANNELS 6 Xposition Yposition Zposition Yrotation Xrotation Zrotation
		JOINT Neck
		{
			OFFSET 0.000000 -0.000001 4.427760
			CHANNELS 6 Xposition Yposition Zposition Yrotation Xrotation Zrotation
			JOINT Head
			{
				OFFSET 0.000000 -0.363272 2.815360
				CHANNELS 6 Xposition Yposition Zposition Yrotation Xrotation Zrotation
				End Site
				{
					OFFSET 0.000000 -0.000001 3.632711
				}
			}
		}
		JOINT LeftShoulder
		{
			OFFSET 0.731534 0.096024 3.575179
			CHANNELS 6 Xposition Yposition Zposition Yrotation Xrotation Zrotation
			JOINT LeftArm
			{
				OFFSET 2.610320 0.000000 0.000000
				CHANNELS 6 Xposition Yposition Zposition Yrotation Xrotation Zrotation
				JOINT LeftForeArm
				{
					OFFSET 5.118420 0.000000 0.000000
					CHANNELS 6 Xposition Yposition Zposition Yrotation Xrotation Zrotation
					JOINT LeftHand
					{
						OFFSET 4.756899 0.000000 0.000000
						CHANNELS 6 Xposition Yposition Zposition Yrotation Xrotation Zrotation
						End Site
						{
							OFFSET 2.724534 0.000000 0.000000
						}
					}
				}
			}
		}
		JOINT RightShoulder
		{
			OFFSET -0.721442 0.096024 3.575179
			CHANNELS 6 Xposition Yposition Zposition Yrotation Xrotation Zrotation
			JOINT RightArm
			{
				OFFSET -2.610320 0.000000 0.000000
				CHANNELS 6 Xposition Yposition Zposition Yrotation Xrotation Zrotation
				JOINT RightForeArm
				{
					OFFSET -5.118420 0.000000 0.000000
					CHANNELS 6 Xposition Yposition Zposition Yrotation Xrotation Zrotation
					JOINT RightHand
					{
						OFFSET -4.756900 0.000000 0.000000
						CHANNELS 6 Xposition Yposition Zposition Yrotation Xrotation Zrotation
						End Site
						{
							OFFSET -2.724534 0.000000 0.000000
						}
					}
				}
			}
		}
	}
	JOINT LeftUpLeg
	{
		OFFSET 1.816360 0.000000 0.000000
		CHANNELS 6 Xposition Yposition Zposition Yrotation Xrotation Zrotation
		JOINT LeftLeg
		{
			OFFSET 0.000000 0.000001 -7.638980
			CHANNELS 6 Xposition Yposition Zposition Yrotation Xrotation Zrotation
			JOINT LeftFoot
			{
				OFFSET 0.000000 0.000001 -8.008600
				CHANNELS 6 Xposition Yposition Zposition Yrotation Xrotation Zrotation
				JOINT LeftToeBase
				{
					OFFSET 0.000000 -2.724540 -1.180634
					CHANNELS 6 Xposition Yposition Zposition Yrotation Xrotation Zrotation
					End Site
					{
						OFFSET 0.000000 -0.726542 0.000000
					}
				}
			}
		}
	}
	JOINT RightUpLeg
	{
		OFFSET -1.816360 0.000000 0.000000
		CHANNELS 6 Xposition Yposition Zposition Yrotation Xrotation Zrotation
		JOINT RightLeg
		{
			OFFSET 0.000000 0.000001 -7.638980
			CHANNELS 6 Xposition Yposition Zposition Yrotation Xrotation Zrotation
			JOINT RightFoot
			{
				OFFSET 0.000000 0.000001 -8.008600
				CHANNELS 6 Xposition Yposition Zposition Yrotation Xrotation Zrotation
				JOINT RightToeBase
				{
					OFFSET 0.000000 -2.724540 -1.180634
					CHANNELS 6 Xposition Yposition Zposition Yrotation Xrotation Zrotation
					End Site
					{
						OFFSET 0.000000 -0.726542 0.000000
					}
				}
			}
		}
	}
}
MOTION
Frames: 4
Frame Time: 0.041667
-0.673611 -0.372076 14.927923 -2.313433 17.800665 -0.229059 -0.000000 -0.000000 5.553895 -7.697385 -20.184604 -1.369360 0.000000 -0.000001 4.427762 2.860028 13.412662 1.910104 0.000000 -0.363272 2.815358 5.899097 5.084523 2.273395 0.731534 0.096024 3.575177 -18.563614 -7.523761 3.257867 2.610321 -0.000001 -0.000002 6.375478 -9.557314 -12.688412 5.118421 0.000000 0.000002 3.011662 -4.558395 1.884242 4.756898 -0.000001 0.000002 -3.701245 -3.905557 18.559960 -0.721442 0.096024 3.575180 14.487379 0.100730 -4.769659 -2.610320 -0.000000 0.000000 -18.880782 26.697814 15.534160 -5.118419 -0.000001 -0.000000 44.241659 -29.917287 79.178449 -4.756900 0.000001 -0.000001 31.463673 9.209393 -1.968077 1.816360 0.000001 0.000002 -28.588109 -30.008159 30.053806 0.000000 0.000002 -7.638980 13.871557 31.500303 20.047380 0.000000 0.000001 -8.008601 7.115356 1.251623 17.707733 -0.000000 -2.724539 -1.180634 -0.000001 -0.000002 -0.000002 -1.816360 0.000000 0.000000 34.843172 -28.311646 -4.525827 0.000001 0.000002 -7.638980 -27.038129 21.607040 -30.083520 0.000000 0.000001 -8.008599 -9.131788 -9.123780 -25.507620 0.000000 -2.724541 -1.180634 -0.000001 0.000000 0.000004 
-0.673369 -0.376156 14.929134 -2.283906 17.766388 -0.176541 0.000000 0.000001 5.553892 -7.697140 -20.162998 -1.410686 0.000000 -0.000001 4.427760 2.866380 13.409864 1.920446 0.000000 -0.363273 2.815359 5.920293 5.145976 2.289296 0.731534 0.096024 3.575179 -18.568378 -7.536281 3.247978 2.610320 -0.000000 0.000004 6.421245 -9.598189 -12.712368 5.118420 -0.000000 -0.000001 3.016819 -4.539387 1.910202 4.756898 -0.000000 -0.000000 -3.686911 -3.888491 18.548362 -0.721441 0.096024 3.575181 14.491746 0.112286 -4.775157 -2.610321 -0.000000 0.000002 -18.925624 26.659774 15.539305 -5.118418 -0.000000 -0.000001 44.183729 -29.879322 79.238596 -4.756900 -0.000001 -0.000001 31.522334 9.223684 -1.919752 1.816360 0.000001 -0.000002 -28.577614 -29.981897 29.993977 0.000000 0.000002 -7.638980 13.863026 31.481223 20.038766 0.000000 0.000001 -8.008598 7.121480 1.260421 17.697510 0.000000 -2.724539 -1.180635 -0.000001 -0.000001 0.000001 -1.816360 0.000001 -0.000002 34.804691 -28.227755 -4.501878 -0.000000 0.000001 -7.638982 -27.019014 21.578239 -30.055728 0.000000 0.000001 -8.008599 -9.148524 -9.132364 -25.531000 0.000001 -2.724539 -1.180633 -0.000000 -0.000002 0.000003 
-0.672866 -0.377736 14.930073 -2.272012 17.764574 -0.164750 0.000000 -0.000000 5.553895 -7.688662 -20.168519 -1.410337 0.000000 -0.000001 4.427763 2.841550 13.402736 1.919981 -0.000000 -0.363272 2.815361 5.989242 5.211801 2.310537 0.731534 0.096024 3.575179 -18.581907 -7.543858 3.238778 2.610319 -0.000001 -0.000001 6.469118 -9.618531 -12.737393 5.118421 -0.000001 -0.000001 3.007811 -4.508932 1.933609 4.756902 0.000001 0.000000 -3.677857 -3.859122 18.545546 -0.721443 0.096024 3.575181 14.478770 0.106291 -4.775963 -2.610320 -0.000000 -0.000000 -18.966880 26.639181 15.536758 -5.118419 -0.000001 0.000003 44.170577 -29.847192 79.274317 -4.756901 0.000001 0.000001 31.472600 9.256405 -1.863141 1.816360 0.000001 0.000001 -28.579072 -29.980969 30.058433 -0.000000 0.000001 -7.638978 13.815274 31.501717 19.964809 0.000000 0.000000 -8.008599 7.123933 1.264081 17.684608 0.000000 -2.724539 -1.180633 0.000000 -0.000000 -0.000001 -1.816360 0.000001 0.000001 34.784668 -28.219620 -4.495560 0.000001 0.000001 -7.638980 -26.998780 21.589472 -30.029914 -0.000001 0.000001 -8.008601 -9.187834 -9.148855 -25.532502 0.000000 -2.724540 -1.180633 -0.000000 0.000000 0.000002 
-0.672244 -0.379411 14.931113 -2.264612 17.765640 -0.147544 0.000000 -0.000001 5.553895 -7.692387 -20.170990 -1.416122 -0.000000 -0.000001 4.427762 2.867136 13.388201 1.939620 -0.000000 -0.363271 2.815358 6.006151 5.271342 2.330743 0.731533 0.096024 3.575177 -18.568995 -7.557808 3.203429 2.610320 -0.000000 0.000004 6.503035 -9.681838 -12.743592 5.118420 0.000001 -0.000001 3.029087 -4.482223 1.960239 4.756899 0.000001 0.000003 -3.687804 -3.830378 18.525500 -0.721442 0.096024 3.575179 14.491291 0.108739 -4.788152 -2.610320 -0.000000 0.000003 -19.018484 26.540643 15.517500 -5.118419 -0.000000 0.000005 44.060399 -29.774137 79.413155 -4.756904 0.000001 0.000004 31.486284 9.317294 -1.827692 1.816360 0.000000 0.000001 -28.570003 -29.982731 30.041518 -0.000000 0.000002 -7.638982 13.811095 31.497226 19.961055 0.000000 0.000001 -8.008599 7.081539 1.281755 17.684055 0.000000 -2.724540 -1.180634 0.000001 0.000001 -0.000002 -1.816360 -0.000000 0.000001 34.772025 -28.205095 -4.489783 -0.000001 0.000002 -7.638982 -26.985319 21.579761 -30.043499 -0.000000 0.000001 -8.008599 -9.182941 -9.133511 -25.541711 0.000000 -2.724539 -1.180634 -0.000000 0.000000 0.000004 
